<?xml version="1.0" encoding="UTF-8" standalone="no"?>
<!DOCTYPE svg PUBLIC "-//W3C//DTD SVG 1.1//EN"
 "http://www.w3.org/Graphics/SVG/1.1/DTD/svg11.dtd">
<!-- Generated by graphviz version 9.0.0 (20230911.1827)
 -->
<!-- Pages: 1 -->
<svg width="1656pt" height="404pt"
 viewBox="0.00 0.00 1655.72 404.00" xmlns="http://www.w3.org/2000/svg" xmlns:xlink="http://www.w3.org/1999/xlink">
<g id="graph0" class="graph" transform="scale(1 1) rotate(0) translate(4 400)">
<polygon fill="white" stroke="none" points="-4,4 -4,-400 1651.72,-400 1651.72,4 -4,4"/>
<!-- [root] data.huaweicloud_availability_zones.myaz (expand) -->
<g id="node1" class="node">
<title>[root] data.huaweicloud_availability_zones.myaz (expand)</title>
<polygon fill="none" stroke="black" points="737.38,-108 487.38,-108 487.38,-72 737.38,-72 737.38,-108"/>
<text text-anchor="middle" x="612.38" y="-83.83" font-family="Times,serif" font-size="14.00">data.huaweicloud_availability_zones.myaz</text>
</g>
<!-- [root] provider[&quot;registry.terraform.io/huaweicloud/huaweicloud&quot;] -->
<g id="node13" class="node">
<title>[root] provider[&quot;registry.terraform.io/huaweicloud/huaweicloud&quot;]</title>
<polygon fill="none" stroke="black" points="612.38,-36 307.9,-18 612.37,0 916.85,-18 612.38,-36"/>
<text text-anchor="middle" x="612.38" y="-11.82" font-family="Times,serif" font-size="14.00">provider[&quot;registry.terraform.io/huaweicloud/huaweicloud&quot;]</text>
</g>
<!-- [root] data.huaweicloud_availability_zones.myaz (expand)&#45;&gt;[root] provider[&quot;registry.terraform.io/huaweicloud/huaweicloud&quot;] -->
<g id="edge1" class="edge">
<title>[root] data.huaweicloud_availability_zones.myaz (expand)&#45;&gt;[root] provider[&quot;registry.terraform.io/huaweicloud/huaweicloud&quot;]</title>
<path fill="none" stroke="black" d="M612.38,-71.7C612.38,-64.41 612.38,-55.73 612.38,-47.54"/>
<polygon fill="black" stroke="black" points="615.88,-47.62 612.38,-37.62 608.88,-47.62 615.88,-47.62"/>
</g>
<!-- [root] data.huaweicloud_compute_flavors.myflavor (expand) -->
<g id="node2" class="node">
<title>[root] data.huaweicloud_compute_flavors.myflavor (expand)</title>
<polygon fill="none" stroke="black" points="763.38,-180 501.38,-180 501.38,-144 763.38,-144 763.38,-180"/>
<text text-anchor="middle" x="632.38" y="-155.82" font-family="Times,serif" font-size="14.00">data.huaweicloud_compute_flavors.myflavor</text>
</g>
<!-- [root] data.huaweicloud_compute_flavors.myflavor (expand)&#45;&gt;[root] data.huaweicloud_availability_zones.myaz (expand) -->
<g id="edge2" class="edge">
<title>[root] data.huaweicloud_compute_flavors.myflavor (expand)&#45;&gt;[root] data.huaweicloud_availability_zones.myaz (expand)</title>
<path fill="none" stroke="black" d="M627.43,-143.7C625.3,-136.24 622.75,-127.32 620.37,-118.97"/>
<polygon fill="black" stroke="black" points="623.79,-118.21 617.68,-109.56 617.06,-120.14 623.79,-118.21"/>
</g>
<!-- [root] data.huaweicloud_images_image.myimage (expand) -->
<g id="node3" class="node">
<title>[root] data.huaweicloud_images_image.myimage (expand)</title>
<polygon fill="none" stroke="black" points="1034.88,-180 781.88,-180 781.88,-144 1034.88,-144 1034.88,-180"/>
<text text-anchor="middle" x="908.38" y="-155.82" font-family="Times,serif" font-size="14.00">data.huaweicloud_images_image.myimage</text>
</g>
<!-- [root] data.huaweicloud_images_image.myimage (expand)&#45;&gt;[root] provider[&quot;registry.terraform.io/huaweicloud/huaweicloud&quot;] -->
<g id="edge3" class="edge">
<title>[root] data.huaweicloud_images_image.myimage (expand)&#45;&gt;[root] provider[&quot;registry.terraform.io/huaweicloud/huaweicloud&quot;]</title>
<path fill="none" stroke="black" d="M856.53,-143.58C833.48,-134.66 806.59,-122.59 784.38,-108 764.93,-95.23 765.99,-84.51 746.38,-72 723.78,-57.6 696.64,-45.97 672.71,-37.32"/>
<polygon fill="black" stroke="black" points="673.99,-34.06 663.4,-34.05 671.68,-40.66 673.99,-34.06"/>
</g>
<!-- [root] data.huaweicloud_networking_secgroup.mysecgroup (expand) -->
<g id="node4" class="node">
<title>[root] data.huaweicloud_networking_secgroup.mysecgroup (expand)</title>
<polygon fill="none" stroke="black" points="1099.12,-108 793.62,-108 793.62,-72 1099.12,-72 1099.12,-108"/>
<text text-anchor="middle" x="946.38" y="-83.83" font-family="Times,serif" font-size="14.00">data.huaweicloud_networking_secgroup.mysecgroup</text>
</g>
<!-- [root] data.huaweicloud_networking_secgroup.mysecgroup (expand)&#45;&gt;[root] provider[&quot;registry.terraform.io/huaweicloud/huaweicloud&quot;] -->
<g id="edge4" class="edge">
<title>[root] data.huaweicloud_networking_secgroup.mysecgroup (expand)&#45;&gt;[root] provider[&quot;registry.terraform.io/huaweicloud/huaweicloud&quot;]</title>
<path fill="none" stroke="black" d="M862.95,-71.52C809.49,-60.31 740.63,-45.88 688.63,-34.98"/>
<polygon fill="black" stroke="black" points="689.45,-31.58 678.95,-32.95 688.02,-38.43 689.45,-31.58"/>
</g>
<!-- [root] huaweicloud_compute_instance.atominstance (expand) -->
<g id="node5" class="node">
<title>[root] huaweicloud_compute_instance.atominstance (expand)</title>
<polygon fill="none" stroke="black" points="1038.25,-252 772.5,-252 772.5,-216 1038.25,-216 1038.25,-252"/>
<text text-anchor="middle" x="905.38" y="-227.82" font-family="Times,serif" font-size="14.00">huaweicloud_compute_instance.atominstance</text>
</g>
<!-- [root] huaweicloud_compute_instance.atominstance (expand)&#45;&gt;[root] data.huaweicloud_compute_flavors.myflavor (expand) -->
<g id="edge5" class="edge">
<title>[root] huaweicloud_compute_instance.atominstance (expand)&#45;&gt;[root] data.huaweicloud_compute_flavors.myflavor (expand)</title>
<path fill="none" stroke="black" d="M837.19,-215.52C798.93,-205.71 751.03,-193.43 711.18,-183.21"/>
<polygon fill="black" stroke="black" points="712.19,-179.85 701.63,-180.76 710.45,-186.63 712.19,-179.85"/>
</g>
<!-- [root] huaweicloud_compute_instance.atominstance (expand)&#45;&gt;[root] data.huaweicloud_images_image.myimage (expand) -->
<g id="edge6" class="edge">
<title>[root] huaweicloud_compute_instance.atominstance (expand)&#45;&gt;[root] data.huaweicloud_images_image.myimage (expand)</title>
<path fill="none" stroke="black" d="M906.12,-215.7C906.43,-208.41 906.8,-199.73 907.15,-191.54"/>
<polygon fill="black" stroke="black" points="910.65,-191.76 907.58,-181.62 903.65,-191.46 910.65,-191.76"/>
</g>
<!-- [root] huaweicloud_compute_instance.atominstance (expand)&#45;&gt;[root] data.huaweicloud_networking_secgroup.mysecgroup (expand) -->
<g id="edge7" class="edge">
<title>[root] huaweicloud_compute_instance.atominstance (expand)&#45;&gt;[root] data.huaweicloud_networking_secgroup.mysecgroup (expand)</title>
<path fill="none" stroke="black" d="M996.66,-215.54C1015.02,-207.72 1032.11,-196.39 1043.38,-180 1052.44,-166.81 1051.54,-157.76 1043.38,-144 1035.81,-131.24 1023.97,-121.36 1011.12,-113.77"/>
<polygon fill="black" stroke="black" points="1012.96,-110.78 1002.49,-109.13 1009.64,-116.95 1012.96,-110.78"/>
</g>
<!-- [root] huaweicloud_vpc_subnet.subnet2 (expand) -->
<g id="node10" class="node">
<title>[root] huaweicloud_vpc_subnet.subnet2 (expand)</title>
<polygon fill="none" stroke="black" points="482.88,-180 283.88,-180 283.88,-144 482.88,-144 482.88,-180"/>
<text text-anchor="middle" x="383.38" y="-155.82" font-family="Times,serif" font-size="14.00">huaweicloud_vpc_subnet.subnet2</text>
</g>
<!-- [root] huaweicloud_compute_instance.atominstance (expand)&#45;&gt;[root] huaweicloud_vpc_subnet.subnet2 (expand) -->
<g id="edge8" class="edge">
<title>[root] huaweicloud_compute_instance.atominstance (expand)&#45;&gt;[root] huaweicloud_vpc_subnet.subnet2 (expand)</title>
<path fill="none" stroke="black" d="M772.26,-216.85C694.2,-207.15 593.37,-194.25 494.29,-180.25"/>
<polygon fill="black" stroke="black" points="495.04,-176.82 484.65,-178.88 494.06,-183.75 495.04,-176.82"/>
</g>
<!-- [root] random_password.password (expand) -->
<g id="node14" class="node">
<title>[root] random_password.password (expand)</title>
<polygon fill="none" stroke="black" points="1261.62,-180 1091.12,-180 1091.12,-144 1261.62,-144 1261.62,-180"/>
<text text-anchor="middle" x="1176.38" y="-155.82" font-family="Times,serif" font-size="14.00">random_password.password</text>
</g>
<!-- [root] huaweicloud_compute_instance.atominstance (expand)&#45;&gt;[root] random_password.password (expand) -->
<g id="edge9" class="edge">
<title>[root] huaweicloud_compute_instance.atominstance (expand)&#45;&gt;[root] random_password.password (expand)</title>
<path fill="none" stroke="black" d="M973.06,-215.52C1011.04,-205.71 1058.58,-193.43 1098.15,-183.21"/>
<polygon fill="black" stroke="black" points="1098.81,-186.65 1107.62,-180.76 1097.06,-179.87 1098.81,-186.65"/>
</g>
<!-- [root] huaweicloud_networking_secgroup.mysecgroup (expand) -->
<g id="node6" class="node">
<title>[root] huaweicloud_networking_secgroup.mysecgroup (expand)</title>
<polygon fill="none" stroke="black" points="298,-108 18.75,-108 18.75,-72 298,-72 298,-108"/>
<text text-anchor="middle" x="158.38" y="-83.83" font-family="Times,serif" font-size="14.00">huaweicloud_networking_secgroup.mysecgroup</text>
</g>
<!-- [root] huaweicloud_networking_secgroup.mysecgroup (expand)&#45;&gt;[root] provider[&quot;registry.terraform.io/huaweicloud/huaweicloud&quot;] -->
<g id="edge10" class="edge">
<title>[root] huaweicloud_networking_secgroup.mysecgroup (expand)&#45;&gt;[root] provider[&quot;registry.terraform.io/huaweicloud/huaweicloud&quot;]</title>
<path fill="none" stroke="black" d="M271.77,-71.52C348.05,-59.75 447.4,-44.44 519.1,-33.38"/>
<polygon fill="black" stroke="black" points="519.51,-36.86 528.86,-31.88 518.45,-29.94 519.51,-36.86"/>
</g>
<!-- [root] huaweicloud_networking_secgroup_rule.secgroup_rule (expand) -->
<g id="node7" class="node">
<title>[root] huaweicloud_networking_secgroup_rule.secgroup_rule (expand)</title>
<polygon fill="none" stroke="black" points="316.75,-252 0,-252 0,-216 316.75,-216 316.75,-252"/>
<text text-anchor="middle" x="158.38" y="-227.82" font-family="Times,serif" font-size="14.00">huaweicloud_networking_secgroup_rule.secgroup_rule</text>
</g>
<!-- [root] huaweicloud_networking_secgroup_rule.secgroup_rule (expand)&#45;&gt;[root] huaweicloud_networking_secgroup.mysecgroup (expand) -->
<g id="edge11" class="edge">
<title>[root] huaweicloud_networking_secgroup_rule.secgroup_rule (expand)&#45;&gt;[root] huaweicloud_networking_secgroup.mysecgroup (expand)</title>
<path fill="none" stroke="black" d="M158.38,-215.59C158.38,-191.61 158.38,-148.14 158.38,-119.42"/>
<polygon fill="black" stroke="black" points="161.88,-119.62 158.38,-109.62 154.88,-119.62 161.88,-119.62"/>
</g>
<!-- [root] huaweicloud_vpc.vpc (expand) -->
<g id="node8" class="node">
<title>[root] huaweicloud_vpc.vpc (expand)</title>
<polygon fill="none" stroke="black" points="450.62,-108 316.12,-108 316.12,-72 450.62,-72 450.62,-108"/>
<text text-anchor="middle" x="383.38" y="-83.83" font-family="Times,serif" font-size="14.00">huaweicloud_vpc.vpc</text>
</g>
<!-- [root] huaweicloud_vpc.vpc (expand)&#45;&gt;[root] provider[&quot;registry.terraform.io/huaweicloud/huaweicloud&quot;] -->
<g id="edge12" class="edge">
<title>[root] huaweicloud_vpc.vpc (expand)&#45;&gt;[root] provider[&quot;registry.terraform.io/huaweicloud/huaweicloud&quot;]</title>
<path fill="none" stroke="black" d="M440.57,-71.52C475,-60.99 518.74,-47.62 553.47,-37.01"/>
<polygon fill="black" stroke="black" points="554.42,-40.38 562.96,-34.11 552.37,-33.68 554.42,-40.38"/>
</g>
<!-- [root] huaweicloud_vpc_subnet.subnet1 (expand) -->
<g id="node9" class="node">
<title>[root] huaweicloud_vpc_subnet.subnet1 (expand)</title>
<polygon fill="none" stroke="black" points="533.88,-252 334.88,-252 334.88,-216 533.88,-216 533.88,-252"/>
<text text-anchor="middle" x="434.38" y="-227.82" font-family="Times,serif" font-size="14.00">huaweicloud_vpc_subnet.subnet1</text>
</g>
<!-- [root] huaweicloud_vpc_subnet.subnet1 (expand)&#45;&gt;[root] huaweicloud_vpc.vpc (expand) -->
<g id="edge13" class="edge">
<title>[root] huaweicloud_vpc_subnet.subnet1 (expand)&#45;&gt;[root] huaweicloud_vpc.vpc (expand)</title>
<path fill="none" stroke="black" d="M334.51,-216.99C293.84,-208.25 253.51,-195.92 241.38,-180 231.67,-167.28 232.25,-157.14 241.38,-144 249.56,-132.21 276.54,-120.85 304.82,-111.69"/>
<polygon fill="black" stroke="black" points="305.75,-115.07 314.24,-108.74 303.66,-108.38 305.75,-115.07"/>
</g>
<!-- [root] huaweicloud_vpc_subnet.subnet2 (expand)&#45;&gt;[root] huaweicloud_vpc.vpc (expand) -->
<g id="edge14" class="edge">
<title>[root] huaweicloud_vpc_subnet.subnet2 (expand)&#45;&gt;[root] huaweicloud_vpc.vpc (expand)</title>
<path fill="none" stroke="black" d="M383.38,-143.7C383.38,-136.41 383.38,-127.73 383.38,-119.54"/>
<polygon fill="black" stroke="black" points="386.88,-119.62 383.38,-109.62 379.88,-119.62 386.88,-119.62"/>
</g>
<!-- [root] huaweicloud_vpc_subnet.subnet3 (expand) -->
<g id="node11" class="node">
<title>[root] huaweicloud_vpc_subnet.subnet3 (expand)</title>
<polygon fill="none" stroke="black" points="750.88,-252 551.88,-252 551.88,-216 750.88,-216 750.88,-252"/>
<text text-anchor="middle" x="651.38" y="-227.82" font-family="Times,serif" font-size="14.00">huaweicloud_vpc_subnet.subnet3</text>
</g>
<!-- [root] huaweicloud_vpc_subnet.subnet3 (expand)&#45;&gt;[root] huaweicloud_vpc.vpc (expand) -->
<g id="edge15" class="edge">
<title>[root] huaweicloud_vpc_subnet.subnet3 (expand)&#45;&gt;[root] huaweicloud_vpc.vpc (expand)</title>
<path fill="none" stroke="black" d="M551.6,-217.35C548.49,-216.89 545.41,-216.44 542.38,-216 482.91,-207.37 313.94,-225.23 274.38,-180 263.84,-167.96 265.89,-157.56 274.38,-144 282.55,-130.94 294.96,-121.01 308.53,-113.5"/>
<polygon fill="black" stroke="black" points="309.85,-116.75 317.21,-109.12 306.7,-110.5 309.85,-116.75"/>
</g>
<!-- [root] provider[&quot;registry.terraform.io/hashicorp/random&quot;] -->
<g id="node12" class="node">
<title>[root] provider[&quot;registry.terraform.io/hashicorp/random&quot;]</title>
<polygon fill="none" stroke="black" points="1382.38,-108 1117.03,-90 1382.38,-72 1647.72,-90 1382.38,-108"/>
<text text-anchor="middle" x="1382.38" y="-83.83" font-family="Times,serif" font-size="14.00">provider[&quot;registry.terraform.io/hashicorp/random&quot;]</text>
</g>
<!-- [root] random_password.password (expand)&#45;&gt;[root] provider[&quot;registry.terraform.io/hashicorp/random&quot;] -->
<g id="edge21" class="edge">
<title>[root] random_password.password (expand)&#45;&gt;[root] provider[&quot;registry.terraform.io/hashicorp/random&quot;]</title>
<path fill="none" stroke="black" d="M1227.83,-143.52C1258.63,-133.05 1297.73,-119.76 1328.89,-109.17"/>
<polygon fill="black" stroke="black" points="1329.78,-112.57 1338.13,-106.04 1327.53,-105.94 1329.78,-112.57"/>
</g>
<!-- [root] provider[&quot;registry.terraform.io/hashicorp/random&quot;] (close) -->
<g id="node15" class="node">
<title>[root] provider[&quot;registry.terraform.io/hashicorp/random&quot;] (close)</title>
<ellipse fill="none" stroke="black" cx="1169.38" cy="-306" rx="235.33" ry="18"/>
<text text-anchor="middle" x="1169.38" y="-299.82" font-family="Times,serif" font-size="14.00">[root] provider[&quot;registry.terraform.io/hashicorp/random&quot;] (close)</text>
</g>
<!-- [root] provider[&quot;registry.terraform.io/hashicorp/random&quot;] (close)&#45;&gt;[root] random_password.password (expand) -->
<g id="edge16" class="edge">
<title>[root] provider[&quot;registry.terraform.io/hashicorp/random&quot;] (close)&#45;&gt;[root] random_password.password (expand)</title>
<path fill="none" stroke="black" d="M1170.23,-287.59C1171.42,-263.61 1173.56,-220.14 1174.97,-191.42"/>
<polygon fill="black" stroke="black" points="1178.46,-191.78 1175.46,-181.62 1171.47,-191.44 1178.46,-191.78"/>
</g>
<!-- [root] provider[&quot;registry.terraform.io/huaweicloud/huaweicloud&quot;] (close) -->
<g id="node16" class="node">
<title>[root] provider[&quot;registry.terraform.io/huaweicloud/huaweicloud&quot;] (close)</title>
<ellipse fill="none" stroke="black" cx="651.38" cy="-306" rx="263" ry="18"/>
<text text-anchor="middle" x="651.38" y="-299.82" font-family="Times,serif" font-size="14.00">[root] provider[&quot;registry.terraform.io/huaweicloud/huaweicloud&quot;] (close)</text>
</g>
<!-- [root] provider[&quot;registry.terraform.io/huaweicloud/huaweicloud&quot;] (close)&#45;&gt;[root] huaweicloud_compute_instance.atominstance (expand) -->
<g id="edge17" class="edge">
<title>[root] provider[&quot;registry.terraform.io/huaweicloud/huaweicloud&quot;] (close)&#45;&gt;[root] huaweicloud_compute_instance.atominstance (expand)</title>
<path fill="none" stroke="black" d="M712.86,-288.05C748.54,-278.22 793.72,-265.77 831.34,-255.4"/>
<polygon fill="black" stroke="black" points="832.08,-258.83 840.79,-252.8 830.22,-252.08 832.08,-258.83"/>
</g>
<!-- [root] provider[&quot;registry.terraform.io/huaweicloud/huaweicloud&quot;] (close)&#45;&gt;[root] huaweicloud_networking_secgroup_rule.secgroup_rule (expand) -->
<g id="edge18" class="edge">
<title>[root] provider[&quot;registry.terraform.io/huaweicloud/huaweicloud&quot;] (close)&#45;&gt;[root] huaweicloud_networking_secgroup_rule.secgroup_rule (expand)</title>
<path fill="none" stroke="black" d="M540.43,-289.25C467.09,-278.83 370.51,-265.12 292.81,-254.09"/>
<polygon fill="black" stroke="black" points="293.38,-250.63 282.98,-252.69 292.39,-257.56 293.38,-250.63"/>
</g>
<!-- [root] provider[&quot;registry.terraform.io/huaweicloud/huaweicloud&quot;] (close)&#45;&gt;[root] huaweicloud_vpc_subnet.subnet1 (expand) -->
<g id="edge19" class="edge">
<title>[root] provider[&quot;registry.terraform.io/huaweicloud/huaweicloud&quot;] (close)&#45;&gt;[root] huaweicloud_vpc_subnet.subnet1 (expand)</title>
<path fill="none" stroke="black" d="M598.57,-287.97C568.72,-278.34 531.15,-266.22 499.48,-256"/>
<polygon fill="black" stroke="black" points="500.58,-252.68 489.99,-252.94 498.44,-259.34 500.58,-252.68"/>
</g>
<!-- [root] provider[&quot;registry.terraform.io/huaweicloud/huaweicloud&quot;] (close)&#45;&gt;[root] huaweicloud_vpc_subnet.subnet3 (expand) -->
<g id="edge20" class="edge">
<title>[root] provider[&quot;registry.terraform.io/huaweicloud/huaweicloud&quot;] (close)&#45;&gt;[root] huaweicloud_vpc_subnet.subnet3 (expand)</title>
<path fill="none" stroke="black" d="M651.38,-287.7C651.38,-280.41 651.38,-271.73 651.38,-263.54"/>
<polygon fill="black" stroke="black" points="654.88,-263.62 651.38,-253.62 647.88,-263.62 654.88,-263.62"/>
</g>
<!-- [root] root -->
<g id="node17" class="node">
<title>[root] root</title>
<ellipse fill="none" stroke="black" cx="909.38" cy="-378" rx="45.95" ry="18"/>
<text text-anchor="middle" x="909.38" y="-371.82" font-family="Times,serif" font-size="14.00">[root] root</text>
</g>
<!-- [root] root&#45;&gt;[root] provider[&quot;registry.terraform.io/hashicorp/random&quot;] (close) -->
<g id="edge22" class="edge">
<title>[root] root&#45;&gt;[root] provider[&quot;registry.terraform.io/hashicorp/random&quot;] (close)</title>
<path fill="none" stroke="black" d="M946.63,-366.97C985.38,-356.54 1047.08,-339.93 1095.73,-326.83"/>
<polygon fill="black" stroke="black" points="1096.63,-330.21 1105.38,-324.23 1094.81,-323.45 1096.63,-330.21"/>
</g>
<!-- [root] root&#45;&gt;[root] provider[&quot;registry.terraform.io/huaweicloud/huaweicloud&quot;] (close) -->
<g id="edge23" class="edge">
<title>[root] root&#45;&gt;[root] provider[&quot;registry.terraform.io/huaweicloud/huaweicloud&quot;] (close)</title>
<path fill="none" stroke="black" d="M872.41,-366.97C834.02,-356.55 772.93,-339.98 724.7,-326.89"/>
<polygon fill="black" stroke="black" points="725.71,-323.54 715.14,-324.3 723.87,-330.3 725.71,-323.54"/>
</g>
</g>
</svg>
